<svg xmlns="http://www.w3.org/2000/svg" version="1.1" xmlns:xlink="http://www.w3.org/1999/xlink" xmlns:svgjs="http://svgjs.dev/svgjs" width="1440" height="560" preserveAspectRatio="none" viewBox="0 0 1440 560">
    <g mask="url(&quot;#SvgjsMask1047&quot;)" fill="none">
        <rect width="1440" height="560" x="0" y="0" fill="rgba(103, 221, 233, 0.72)"></rect>
        <path d="M611.2935810925449 145.65612121398127L668.7212969502449 219.16024558200616 742.2254213182698 161.73252972430606 684.7977054605698 88.2284053562812z" fill="rgba(28, 83, 142, 0.4)" class="triangle-float3"></path>
        <path d="M893.558,140.233C923.134,140.932,953.004,129.179,967.802,103.562C982.605,77.936,976.769,46.821,962.495,20.897C947.597,-6.16,924.393,-29.478,893.558,-31.277C859.728,-33.25,824.768,-18.112,809.126,11.95C794.337,40.374,807.54,73.426,825.155,100.19C840.724,123.844,865.248,139.564,893.558,140.233" fill="rgba(28, 83, 142, 0.4)" class="triangle-float3"></path>
        <path d="M485.49,555.157C524.685,555.396,558.823,529.295,576.931,494.533C593.735,462.273,588.064,424.519,569.979,392.96C551.775,361.194,522.102,335.034,485.49,334.966C448.78,334.898,418.512,360.683,400.454,392.644C382.724,424.025,379.249,461.495,395.959,493.43C413.972,527.854,446.639,554.92,485.49,555.157" fill="rgba(28, 83, 142, 0.4)" class="triangle-float1"></path>
        <path d="M863.463,630.916C910.057,632.759,956.583,611.997,979.662,571.479C1002.54,531.313,993.357,482.766,970.84,442.397C947.615,400.758,911.141,363.369,863.463,363.152C815.499,362.933,776.073,398.635,754.377,441.411C734.707,480.193,740.468,525.191,762.162,562.878C783.912,600.662,819.9,629.193,863.463,630.916" fill="rgba(28, 83, 142, 0.4)" class="triangle-float1"></path>
        <path d="M1096.3920970997324 162.97190066970902L1135.2773749648716 79.58215318198083 1051.8876274771433 40.69687531684164 1013.0023496120042 124.08662280456983z" fill="rgba(28, 83, 142, 0.4)" class="triangle-float1"></path>
        <path d="M1321.509,515.948C1335.264,515.25,1347.381,507.704,1354.411,495.86C1361.604,483.742,1363.547,468.86,1356.801,456.488C1349.78,443.612,1336.157,436.241,1321.509,435.52C1305.36,434.725,1288.086,438.903,1279.634,452.687C1270.873,466.974,1273.011,485.549,1282.261,499.524C1290.651,512.199,1306.329,516.719,1321.509,515.948" fill="rgba(28, 83, 142, 0.4)" class="triangle-float3"></path>
        <path d="M1066.7 148.17 a164.75 164.75 0 1 0 329.5 0 a164.75 164.75 0 1 0 -329.5 0z" fill="rgba(28, 83, 142, 0.4)" class="triangle-float3"></path>
    </g>
    <defs>
        <mask id="SvgjsMask1047">
            <rect width="1440" height="560" fill="#ffffff"></rect>
        </mask>
        <style>
            @keyframes float1 {
                    0%{transform: translate(0, 0)}
                    50%{transform: translate(-10px, 0)}
                    100%{transform: translate(0, 0)}
                }

                .triangle-float1 {
                    animation: float1 5s infinite;
                }

                @keyframes float2 {
                    0%{transform: translate(0, 0)}
                    50%{transform: translate(-5px, -5px)}
                    100%{transform: translate(0, 0)}
                }

                .triangle-float2 {
                    animation: float2 4s infinite;
                }

                @keyframes float3 {
                    0%{transform: translate(0, 0)}
                    50%{transform: translate(0, -10px)}
                    100%{transform: translate(0, 0)}
                }

                .triangle-float3 {
                    animation: float3 6s infinite;
                }
        </style>
    </defs>
</svg>